<?xml version="1.0" standalone="no"?>
<!DOCTYPE svg PUBLIC "-//W3C//DTD SVG 20010904//EN"
 "http://www.w3.org/TR/2001/REC-SVG-20010904/DTD/svg10.dtd">
<svg version="1.0" xmlns="http://www.w3.org/2000/svg"
 width="512.000000pt" height="512.000000pt" viewBox="0 0 512.000000 512.000000"
 preserveAspectRatio="xMidYMid meet">

<g transform="translate(0.000000,512.000000) scale(0.100000,-0.100000)"
fill="#000000" stroke="none">
<path d="M2525 4103 c-40 -10 -84 -53 -96 -93 l-12 -40 -210 0 -209 0 7 -27
c3 -16 13 -38 21 -51 17 -26 72 -62 95 -62 10 0 20 -15 28 -39 13 -45 60 -89
102 -98 16 -3 29 -11 29 -17 0 -7 9 -29 20 -50 l19 -38 -23 -32 c-66 -87 -71
-107 -74 -301 -3 -167 -2 -185 19 -240 28 -75 102 -155 178 -192 48 -24 68
-28 141 -28 72 0 93 4 140 27 72 35 136 99 169 168 25 53 26 61 26 250 0 186
-1 197 -24 240 -13 25 -34 59 -47 76 l-23 32 19 38 c11 21 20 43 20 50 0 6 13
14 29 17 42 9 89 53 102 98 8 24 18 39 28 39 23 0 78 36 95 62 8 13 18 35 21
51 l7 27 -209 0 -210 0 -12 40 c-19 64 -101 110 -166 93z"/>
<path d="M1000 3061 c0 -146 41 -340 105 -503 171 -430 540 -777 976 -916 181
-58 244 -67 474 -67 178 1 225 4 308 23 321 71 577 210 803 436 271 272 430
618 451 984 l6 112 -499 0 -500 0 -16 -87 c-41 -216 -185 -380 -388 -444 -89
-28 -231 -28 -320 0 -213 67 -368 253 -394 474 l-7 57 -500 0 -499 0 0 -69z"/>
</g>
</svg>
